<?xml version="1.0" encoding="utf-8" ?>
<svg baseProfile="full" height="1024" version="1.1" width="1024" xmlns="http://www.w3.org/2000/svg" xmlns:ev="http://www.w3.org/2001/xml-events" xmlns:xlink="http://www.w3.org/1999/xlink"><defs /><path d="M 197,383 L 196,384 L 189,384 L 188,385 L 184,385 L 183,386 L 180,386 L 179,387 L 176,387 L 175,388 L 173,388 L 172,389 L 170,389 L 169,390 L 167,390 L 166,391 L 165,391 L 164,392 L 163,392 L 162,393 L 161,393 L 160,394 L 158,394 L 156,396 L 155,396 L 154,397 L 153,397 L 151,399 L 150,399 L 149,400 L 148,400 L 145,403 L 144,403 L 141,406 L 140,406 L 126,420 L 126,421 L 123,424 L 123,425 L 120,428 L 120,429 L 118,431 L 118,432 L 117,433 L 117,434 L 115,436 L 115,437 L 114,438 L 114,439 L 113,440 L 113,441 L 112,442 L 112,443 L 111,444 L 111,445 L 110,446 L 110,448 L 109,449 L 109,450 L 108,451 L 108,453 L 107,454 L 107,456 L 106,457 L 106,460 L 105,461 L 105,464 L 104,465 L 104,470 L 103,471 L 103,479 L 102,480 L 102,495 L 103,496 L 103,504 L 104,505 L 104,509 L 105,510 L 105,513 L 106,514 L 106,517 L 107,518 L 107,520 L 108,521 L 108,523 L 109,524 L 109,526 L 110,527 L 110,528 L 111,529 L 111,530 L 112,531 L 112,532 L 113,533 L 113,534 L 114,535 L 114,536 L 115,537 L 115,538 L 116,539 L 116,540 L 118,542 L 118,543 L 119,544 L 119,545 L 122,548 L 122,549 L 125,552 L 125,553 L 141,569 L 142,569 L 145,572 L 146,572 L 148,574 L 149,574 L 151,576 L 152,576 L 153,577 L 154,577 L 156,579 L 157,579 L 158,580 L 159,580 L 160,581 L 161,581 L 162,582 L 163,582 L 164,583 L 165,583 L 166,584 L 168,584 L 169,585 L 170,585 L 171,586 L 173,586 L 174,587 L 176,587 L 177,588 L 180,588 L 181,589 L 184,589 L 185,590 L 190,590 L 191,591 L 198,591 L 199,592 L 215,592 L 216,591 L 223,591 L 224,590 L 228,590 L 229,589 L 232,589 L 233,588 L 236,588 L 237,587 L 239,587 L 240,586 L 242,586 L 243,585 L 244,585 L 245,584 L 247,584 L 248,583 L 249,583 L 250,582 L 251,582 L 252,581 L 253,581 L 254,580 L 255,580 L 256,579 L 257,579 L 259,577 L 260,577 L 261,576 L 262,576 L 264,574 L 265,574 L 268,571 L 269,571 L 273,567 L 274,567 L 286,555 L 286,554 L 290,550 L 290,549 L 293,546 L 293,545 L 294,544 L 294,543 L 296,541 L 296,540 L 297,539 L 297,538 L 299,536 L 299,535 L 300,534 L 300,533 L 301,532 L 301,531 L 302,530 L 302,528 L 303,527 L 303,526 L 304,525 L 304,524 L 305,523 L 305,521 L 306,520 L 306,518 L 307,517 L 307,514 L 308,513 L 308,510 L 309,509 L 309,505 L 310,504 L 310,497 L 311,496 L 311,480 L 310,479 L 310,473 L 309,472 L 309,466 L 308,465 L 308,462 L 307,461 L 307,459 L 306,458 L 306,455 L 305,454 L 305,452 L 304,451 L 304,450 L 303,449 L 303,447 L 302,446 L 302,445 L 301,444 L 301,443 L 300,442 L 300,441 L 299,440 L 299,439 L 298,438 L 298,437 L 296,435 L 296,434 L 295,433 L 295,432 L 293,430 L 293,429 L 290,426 L 290,425 L 287,422 L 287,421 L 273,407 L 272,407 L 269,404 L 268,404 L 265,401 L 264,401 L 262,399 L 261,399 L 260,398 L 259,398 L 257,396 L 256,396 L 255,395 L 254,395 L 253,394 L 252,394 L 251,393 L 250,393 L 249,392 L 248,392 L 247,391 L 245,391 L 244,390 L 243,390 L 242,389 L 240,389 L 239,388 L 236,388 L 235,387 L 233,387 L 232,386 L 229,386 L 228,385 L 223,385 L 222,384 L 216,384 L 215,383 Z" fill="none" stroke="black" stroke-width="2" /></svg>